<?xml version="1.0" standalone="no"?>
<!DOCTYPE svg PUBLIC "-//W3C//DTD SVG 20010904//EN"
 "http://www.w3.org/TR/2001/REC-SVG-20010904/DTD/svg10.dtd">
<svg version="1.0" xmlns="http://www.w3.org/2000/svg"
 width="1000.000000pt" height="1000.000000pt" viewBox="0 0 1000.000000 1000.000000"
 preserveAspectRatio="xMidYMid meet">
<metadata>
Created by potrace 1.11, written by Peter Selinger 2001-2013
</metadata>
<g transform="translate(0.000000,1000.000000) scale(0.100000,-0.100000)"
fill="#000000" stroke="none">
<path d="M8972 9388 c-18 -18 -15 -32 24 -121 65 -148 204 -601 204 -664 0 -9
-15 -13 -42 -13 -59 -1 -116 -29 -171 -86 -81 -83 -111 -216 -68 -309 22 -48
44 -69 94 -90 50 -21 83 -19 143 9 130 60 180 232 140 474 -46 272 -191 718
-257 788 -25 26 -48 31 -67 12z"/>
<path d="M4924 8972 c-123 -44 -219 -135 -278 -263 -34 -75 -66 -194 -66 -247
0 -26 -9 -34 -66 -68 -93 -54 -184 -154 -233 -256 -75 -157 -97 -296 -87 -558
5 -102 9 -205 9 -228 l2 -44 -130 -37 c-380 -110 -725 -284 -1007 -509 -43
-34 -80 -62 -82 -62 -6 0 -5 -65 -12 799 -6 728 -7 764 -25 782 -26 26 -90 25
-113 0 -9 -10 -22 -50 -28 -87 -11 -76 -14 -1366 -2 -1417 l6 -30 -63 7 c-147
15 -475 19 -527 6 -73 -17 -117 -71 -202 -245 -133 -272 -205 -515 -255 -850
-53 -361 -7 -951 101 -1277 23 -70 44 -107 44 -79 0 16 16 13 34 -5 10 -10 16
-33 16 -62 0 -79 39 -319 76 -471 326 -1329 1547 -2253 2919 -2208 1148 38
2160 742 2598 1807 99 241 181 569 202 810 11 133 8 128 73 132 31 2 60 -1 64
-7 28 -40 116 356 149 670 16 159 16 515 0 635 -54 396 -170 765 -322 1021
-80 134 -111 145 -393 135 -105 -4 -209 -9 -231 -12 l-40 -6 0 709 c0 389 -4
730 -8 756 -10 57 -36 87 -76 87 -43 0 -60 -9 -77 -42 -14 -26 -15 -86 -10
-471 4 -243 3 -579 -1 -747 l-8 -305 -34 -3 c-19 -2 -30 -7 -25 -10 5 -4 7
-27 4 -51 l-5 -45 -70 60 c-213 182 -464 339 -719 449 l-121 53 -12 128 c-61
609 -252 1200 -475 1471 -61 73 -157 147 -225 173 -81 31 -202 36 -269 12z
m51 -3688 c28 -48 91 -134 141 -193 260 -305 608 -536 1049 -696 170 -62 168
-60 195 -118 23 -48 25 -63 24 -187 -1 -145 -26 -319 -69 -483 -56 -214 -160
-473 -236 -584 -81 -119 -295 -306 -428 -373 -46 -23 -60 -36 -80 -76 -100
-208 -358 -414 -580 -466 -72 -16 -241 4 -330 40 -159 63 -356 235 -446 390
-25 42 -45 82 -45 89 0 6 -35 35 -77 64 -163 109 -287 223 -362 336 -116 172
-234 512 -280 803 -38 242 -36 372 6 462 16 33 28 42 88 64 316 120 459 186
624 289 313 194 585 468 711 716 26 49 18 56 95 -77z"/>
<path d="M7999 8457 c-19 -13 -68 -48 -109 -79 -73 -54 -325 -220 -405 -268
-22 -13 -48 -33 -57 -44 -34 -41 -23 -65 79 -176 192 -209 317 -370 384 -495
l40 -74 -39 -20 c-56 -29 -101 -77 -131 -141 -21 -45 -26 -70 -26 -136 0 -94
20 -143 72 -175 86 -53 203 -1 254 113 93 210 -81 567 -483 994 -32 33 -58 63
-58 66 0 3 33 24 73 48 106 63 323 207 390 258 32 24 62 40 66 36 4 -5 86
-142 181 -304 95 -162 181 -309 192 -327 l18 -31 -32 -20 c-88 -54 -141 -156
-141 -267 0 -111 44 -182 121 -192 84 -11 165 46 209 146 13 31 28 63 32 71
22 41 21 95 -1 132 -13 21 -55 93 -94 160 -202 349 -405 674 -448 722 -31 32
-44 32 -87 3z"/>
</g>
</svg>
